<svg xmlns="http://www.w3.org/2000/svg" xmlns:xlink="http://www.w3.org/1999/xlink" width="500" zoomAndPan="magnify" viewBox="0 0 375 374.999991" height="500" preserveAspectRatio="xMidYMid meet" version="1.0"><defs><g/><clipPath id="45765427ad"><path d="M 133 90.660156 L 205 90.660156 L 205 169 L 133 169 Z M 133 90.660156 " clip-rule="nonzero"/></clipPath><clipPath id="2730b982b0"><path d="M 117.644531 136 L 290.894531 136 L 290.894531 195.660156 L 117.644531 195.660156 Z M 117.644531 136 " clip-rule="nonzero"/></clipPath></defs><g clip-path="url(#45765427ad)"><path fill="#051d40" d="M 169.847656 146.757812 L 178.390625 131.972656 L 184.003906 141.679688 C 190.65625 139.601562 197.617188 137.832031 204.828125 136.390625 L 178.390625 90.660156 L 148.042969 143.160156 L 133.515625 168.289062 C 143.375 159.792969 155.699219 152.519531 169.847656 146.757812 " fill-opacity="1" fill-rule="nonzero"/></g><g clip-path="url(#2730b982b0)"><path fill="#145da0" d="M 272.804688 137.378906 C 201.429688 131.363281 136.300781 156.507812 117.695312 195.660156 L 141.578125 195.660156 C 154.089844 181.195312 172.03125 168.367188 193.800781 158.625 L 197.578125 165.164062 L 215.207031 195.660156 L 239.089844 195.660156 L 213.320312 151.082031 C 225.640625 147.019531 238.859375 143.886719 252.769531 141.902344 C 265.800781 140.039062 278.570312 139.316406 290.851562 139.585938 C 284.949219 138.65625 278.9375 137.894531 272.804688 137.378906 " fill-opacity="1" fill-rule="nonzero"/></g><g fill="#000000" fill-opacity="1"><g transform="translate(84.807875, 254.591952)"><g><path d="M 23.0625 -39.734375 L 39.109375 0 L 29.375 0 L 26.4375 -7.953125 L 11.3125 -7.953125 L 8.375 0 L -1.34375 0 L 14.6875 -39.734375 Z M 23.359375 -15.890625 L 18.921875 -27.453125 L 18.828125 -27.453125 L 14.40625 -15.890625 Z M 23.359375 -15.890625 "/></g></g></g><g fill="#000000" fill-opacity="1"><g transform="translate(120.575867, 254.591952)"><g><path d="M 17.53125 -40.453125 C 19.675781 -40.453125 21.773438 -40.140625 23.828125 -39.515625 C 25.890625 -38.890625 27.414062 -38.269531 28.40625 -37.65625 L 29.859375 -36.6875 L 26.203125 -29.46875 C 25.910156 -29.664062 25.503906 -29.914062 24.984375 -30.21875 C 24.472656 -30.519531 23.507812 -30.925781 22.09375 -31.4375 C 20.6875 -31.957031 19.375 -32.21875 18.15625 -32.21875 C 16.644531 -32.21875 15.476562 -31.894531 14.65625 -31.25 C 13.84375 -30.613281 13.4375 -29.75 13.4375 -28.65625 C 13.4375 -28.101562 13.628906 -27.59375 14.015625 -27.125 C 14.398438 -26.664062 15.054688 -26.171875 15.984375 -25.640625 C 16.921875 -25.109375 17.738281 -24.679688 18.4375 -24.359375 C 19.144531 -24.046875 20.238281 -23.566406 21.71875 -22.921875 C 24.289062 -21.828125 26.484375 -20.34375 28.296875 -18.46875 C 30.109375 -16.59375 31.015625 -14.46875 31.015625 -12.09375 C 31.015625 -9.8125 30.601562 -7.816406 29.78125 -6.109375 C 28.96875 -4.410156 27.84375 -3.078125 26.40625 -2.109375 C 24.976562 -1.148438 23.394531 -0.441406 21.65625 0.015625 C 19.925781 0.484375 18.050781 0.71875 16.03125 0.71875 C 14.300781 0.71875 12.597656 0.539062 10.921875 0.1875 C 9.253906 -0.164062 7.859375 -0.601562 6.734375 -1.125 C 5.617188 -1.65625 4.609375 -2.175781 3.703125 -2.6875 C 2.804688 -3.207031 2.148438 -3.644531 1.734375 -4 L 1.109375 -4.53125 L 5.640625 -12.140625 C 6.023438 -11.816406 6.550781 -11.40625 7.21875 -10.90625 C 7.894531 -10.40625 9.09375 -9.738281 10.8125 -8.90625 C 12.53125 -8.070312 14.046875 -7.65625 15.359375 -7.65625 C 19.179688 -7.65625 21.09375 -8.957031 21.09375 -11.5625 C 21.09375 -12.101562 20.957031 -12.601562 20.6875 -13.0625 C 20.414062 -13.53125 19.929688 -14 19.234375 -14.46875 C 18.546875 -14.9375 17.9375 -15.304688 17.40625 -15.578125 C 16.875 -15.847656 16.003906 -16.265625 14.796875 -16.828125 C 13.597656 -17.390625 12.710938 -17.816406 12.140625 -18.109375 C 9.734375 -19.296875 7.867188 -20.78125 6.546875 -22.5625 C 5.234375 -24.34375 4.578125 -26.257812 4.578125 -28.3125 C 4.578125 -31.875 5.890625 -34.785156 8.515625 -37.046875 C 11.148438 -39.316406 14.15625 -40.453125 17.53125 -40.453125 Z M 17.53125 -40.453125 "/></g></g></g><g fill="#000000" fill-opacity="1"><g transform="translate(150.952101, 254.591952)"><g><path d="M 0.390625 -31.78125 L 0.390625 -39.734375 L 28.3125 -39.734375 L 28.3125 -31.78125 L 18.875 -31.78125 L 18.875 0 L 9.828125 0 L 9.828125 -31.78125 Z M 0.390625 -31.78125 "/></g></g></g><g fill="#000000" fill-opacity="1"><g transform="translate(177.669648, 254.591952)"><g><path d="M 2.890625 -39.734375 L 17.09375 -39.734375 C 20.914062 -39.734375 24.03125 -38.710938 26.4375 -36.671875 C 28.84375 -34.628906 30.046875 -31.71875 30.046875 -27.9375 C 30.046875 -25.007812 29.316406 -22.554688 27.859375 -20.578125 C 26.398438 -18.609375 24.414062 -17.222656 21.90625 -16.421875 L 35.59375 0 L 24.078125 0 L 11.9375 -15.703125 L 11.9375 0 L 2.890625 0 Z M 11.9375 -22.109375 L 13 -22.109375 C 13.832031 -22.109375 14.535156 -22.125 15.109375 -22.15625 C 15.691406 -22.1875 16.351562 -22.296875 17.09375 -22.484375 C 17.832031 -22.679688 18.425781 -22.957031 18.875 -23.3125 C 19.320312 -23.664062 19.707031 -24.175781 20.03125 -24.84375 C 20.351562 -25.519531 20.515625 -26.335938 20.515625 -27.296875 C 20.515625 -28.265625 20.351562 -29.082031 20.03125 -29.75 C 19.707031 -30.425781 19.320312 -30.941406 18.875 -31.296875 C 18.425781 -31.648438 17.832031 -31.921875 17.09375 -32.109375 C 16.351562 -32.304688 15.691406 -32.421875 15.109375 -32.453125 C 14.535156 -32.484375 13.832031 -32.5 13 -32.5 L 11.9375 -32.5 Z M 11.9375 -22.109375 "/></g></g></g><g fill="#000000" fill-opacity="1"><g transform="translate(210.164068, 254.591952)"><g><path d="M 1.109375 -19.890625 C 1.109375 -25.640625 3.066406 -30.503906 6.984375 -34.484375 C 10.898438 -38.460938 15.617188 -40.453125 21.140625 -40.453125 C 26.691406 -40.453125 31.410156 -38.46875 35.296875 -34.5 C 39.179688 -30.539062 41.125 -25.671875 41.125 -19.890625 C 41.125 -14.078125 39.210938 -9.1875 35.390625 -5.21875 C 31.578125 -1.257812 26.828125 0.71875 21.140625 0.71875 C 15.328125 0.71875 10.535156 -1.242188 6.765625 -5.171875 C 2.992188 -9.109375 1.109375 -14.015625 1.109375 -19.890625 Z M 10.890625 -19.890625 C 10.890625 -17.804688 11.207031 -15.90625 11.84375 -14.1875 C 12.488281 -12.46875 13.613281 -11.015625 15.21875 -9.828125 C 16.820312 -8.640625 18.796875 -8.046875 21.140625 -8.046875 C 24.515625 -8.046875 27.054688 -9.203125 28.765625 -11.515625 C 30.484375 -13.828125 31.34375 -16.617188 31.34375 -19.890625 C 31.34375 -23.128906 30.46875 -25.910156 28.71875 -28.234375 C 26.96875 -30.566406 24.441406 -31.734375 21.140625 -31.734375 C 17.867188 -31.734375 15.34375 -30.566406 13.5625 -28.234375 C 11.78125 -25.910156 10.890625 -23.128906 10.890625 -19.890625 Z M 10.890625 -19.890625 "/></g></g></g><g fill="#000000" fill-opacity="1"><g transform="translate(250.409137, 254.591952)"><g><path d="M 11.9375 -24.65625 L 11.9375 0 L 2.890625 0 L 2.890625 -39.734375 L 11.9375 -39.734375 L 27.734375 -15.078125 L 27.828125 -15.078125 L 27.828125 -39.734375 L 36.890625 -39.734375 L 36.890625 0 L 27.828125 0 L 12.046875 -24.65625 Z M 11.9375 -24.65625 "/></g></g></g></svg>