<svg xmlns="http://www.w3.org/2000/svg" xmlns:xlink="http://www.w3.org/1999/xlink" width="500" zoomAndPan="magnify" viewBox="0 0 375 374.999991" height="500" preserveAspectRatio="xMidYMid meet" version="1.0"><defs><clipPath id="2ae704a261"><path d="M 53 80.25 L 200 80.25 L 200 239 L 53 239 Z M 53 80.25 " clip-rule="nonzero"/></clipPath><clipPath id="1f88469ab1"><path d="M 21.546875 173 L 374.796875 173 L 374.796875 294.75 L 21.546875 294.75 Z M 21.546875 173 " clip-rule="nonzero"/></clipPath></defs><g clip-path="url(#2ae704a261)"><path fill="#051d40" d="M 127.984375 194.847656 L 145.410156 164.644531 L 156.851562 184.476562 C 170.414062 180.234375 184.609375 176.617188 199.316406 173.667969 L 145.410156 80.25 L 83.523438 187.5 L 53.902344 238.835938 C 74.007812 221.476562 99.140625 206.621094 127.984375 194.847656 " fill-opacity="1" fill-rule="nonzero"/></g><g clip-path="url(#1f88469ab1)"><path fill="#145da0" d="M 337.921875 175.691406 C 192.386719 163.402344 59.585938 214.765625 21.640625 294.746094 L 70.339844 294.746094 C 95.855469 265.199219 132.441406 238.996094 176.828125 219.09375 L 184.535156 232.453125 L 220.480469 294.746094 L 269.179688 294.746094 L 216.632812 203.679688 C 241.753906 195.378906 268.707031 188.984375 297.070312 184.925781 C 323.644531 181.121094 349.679688 179.652344 374.722656 180.203125 C 362.6875 178.296875 350.425781 176.742188 337.921875 175.691406 " fill-opacity="1" fill-rule="nonzero"/></g></svg>